# xmcd
#
# Track frame offsets:
#	150
#	13851
#	34143
#	51083
#	69276
#	86073
#	105998
#	121470
#	135426
#	156264
#	178966
#	196663
#	215283
#	236630
#	250265
#	267059
#	287995
#	303890
#
# Disc length: 4363 seconds
#
# Revision: 0
# Processed by: cddbd v1.5.2PL0 Copyright (c) Steve Scherf et al.
# Submitted via: EasyCDDAExtractor 15.0.0.1
#
DISCID=f8110912
DTITLE=Bjørn Jens - Opp å Stå
DYEAR=1900
DGENRE=
TTITLE0=Lille wille Willy
TTITLE1=Oddemainn
TTITLE2=Nattens dronning
TTITLE3=Heim te Helgeland
TTITLE4=Venga
TTITLE5=Pop artist
TTITLE6=Når du går
TTITLE7=En god grunn
TTITLE8=Røske næver i Beiarn
TTITLE9=Ukrutt
TTITLE10=Kvar gang e skrur ho av skrur ho me på
TTITLE11=Siste villing
TTITLE12=Da du var mi
TTITLE13=Sola mi
TTITLE14=Meisla i stein
TTITLE15=Beibi kom heim
TTITLE16=Whiskey om te vann
TTITLE17=40 te 45
EXTD=
EXTT0=
EXTT1=
EXTT2=
EXTT3=
EXTT4=
EXTT5=
EXTT6=
EXTT7=
EXTT8=
EXTT9=
EXTT10=
EXTT11=
EXTT12=
EXTT13=
EXTT14=
EXTT15=
EXTT16=
EXTT17=
PLAYORDER=
